<?xml version="1.0" encoding="utf-8"?>
<!-- Generator: Adobe Illustrator 16.0.0, SVG Export Plug-In . SVG Version: 6.00 Build 0)  -->
<!DOCTYPE svg PUBLIC "-//W3C//DTD SVG 1.1//EN" "http://www.w3.org/Graphics/SVG/1.1/DTD/svg11.dtd">
<svg version="1.1" id="Layer_1" xmlns="http://www.w3.org/2000/svg" xmlns:xlink="http://www.w3.org/1999/xlink" x="0px" y="0px"
	 width="2000px" height="2000px" viewBox="0 0 2000 2000" enable-background="new 0 0 2000 2000" xml:space="preserve">
<g>
	<path fill="#FFFFFF" d="M931.628,1197.256c-22.099,42.585-72.342,58.32-113.84,81.886
		c-91.983,52.233-146.792,72.204-189.734,103.854c-80.703,50.969-83.94,154.067-148.264,251.039
		c122.002-64.156,128.292-175.146,304.046-243.05c-49.673,109.814-16.233,108.58-70.063,185.827
		c-29.958,51.928-33.166,144.742-35.589,246.397c45.736-152.616,106.594-143.176,120.669-217.937
		c24.927-132.403,56.75-152.3,89.255-226.645c20.953-47.948,52.738-88.226,108.739-70.563
		c62.128,205.313,12.392,252.99-39.254,364.525c-29.486,63.68-14.729,78.817-40.685,185.173
		c70.643-105.285,138.547-189.167,171.829-297.017c22.361,107.85,65.72,264.744,97.602,333.831
		c20.78-141.949,0.934-244.75-20.571-331.963c-18.667-94.66-23.848-137.669-8.484-263.696
		c42.719,24.116,80.974,52.766,95.199,93.776c29.958,86.366,58.378,101.3,80.347,242.615c9.86,63.43,45.54,106.385,77.196,180.384
		c2.297-73.999,44.716-152.091,18.117-207.956c-80.068-168.17-45.57-178.669-77.067-231.465
		c86.994-26.7,218.053,182.357,339.138,245.382c-99.015-140.737-62.779-169.095-142.338-232.112
		c-50.638-40.109-110.361-89.499-166.208-118.944c-43.657-23.019-75.911-31.401-101.083-80.904
		c-9.739-19.153-15.293-59.704-20.111-113.592H949.618C944.685,1126.852,948.607,1164.537,931.628,1197.256z"/>
	<g>
		<path fill="#FFFFFF" d="M451.082,491.685c0-76.958-1.535-140.058-6.158-201.621h120.05l7.696,123.129h3.077
			c36.93-70.8,123.128-140.058,246.246-140.058c103.127,0,263.176,61.563,263.176,317.049v444.784H949.736V605.567
			c0-120.042-44.625-220.083-172.365-220.083c-89.277,0-158.535,63.096-181.619,138.513c-6.158,16.936-9.236,40.023-9.236,63.107
			v105.879H451.082V491.685z"/>
		<path fill="#FFFFFF" d="M1127.109,522.464c0-87.734-1.532-163.146-6.157-232.401h118.498l4.625,146.211h6.162
			c33.853-100.041,115.429-163.14,206.238-163.14c15.38,0,26.148,1.533,38.465,4.613v127.744
			c-13.848-3.083-27.701-4.612-46.168-4.612c-95.424,0-163.146,72.333-181.61,173.911c-3.076,18.462-6.159,40.016-6.159,63.099
			v397.079h-133.894V522.464z"/>
	</g>
</g>
</svg>
